# xmcd
#
# Track frame offsets: 
#        150
#        14486
#        25470
#        47252
#        67462
#        83721
#        101694
#        121684
#        139650
#        160156
#        187585
#
# Disc length: 2930 seconds
#
# Revision: 0
# Processed by: cddbd v1.4PL0 Copyright (c) Steve Scherf et al.
# Submitted via: ExactAudioCopy v0.90b2
#
DISCID=870b700b
DTITLE=Matt Powell - Ten Gallon Heart
DYEAR=2001
DGENRE=Country
TTITLE0=$50 and A Flask Of Crown
TTITLE1=Everybody Thinks You're Still Mine
TTITLE2=Roundabout Way
TTITLE3=Fools To Try Again
TTITLE4=When It Rains It Pours
TTITLE5=Halo
TTITLE6=Sweeter Medicine
TTITLE7=Cadillac
TTITLE8=Fine Line
TTITLE9=Bulletproof Blanket
TTITLE10=Something About That Girl
EXTD=
EXTT0=
EXTT1=
EXTT2=
EXTT3=
EXTT4=
EXTT5=
EXTT6=
EXTT7=
EXTT8=
EXTT9=
EXTT10=
PLAYORDER=
